<svg xmlns="http://www.w3.org/2000/svg" width="200" height="200" viewBox="0 0 200 200" version="1.1">
	<path d="M -0 100.005 L -0 200.010 100.250 199.755 L 200.500 199.500 200.755 99.750 L 201.010 0 100.505 0 L 0 0 -0 100.005 M 0.481 100.500 C 0.481 155.500, 0.602 178.147, 0.750 150.826 C 0.898 123.506, 0.898 78.506, 0.750 50.826 C 0.602 23.147, 0.481 45.500, 0.481 100.500 M 74.947 17.242 C 62.601 21.085, 51.938 24.683, 51.250 25.237 C 50.563 25.791, 50 28.262, 50 30.728 C 50 34.051, 49.353 35.980, 47.500 38.182 C 46.125 39.816, 45 41.780, 45 42.547 C 45 43.529, 43.894 43.875, 41.250 43.720 L 37.500 43.500 37.806 48.500 C 38.453 59.051, 42.411 67.989, 45.200 65.200 C 46.020 64.380, 46.019 63.728, 45.195 62.735 C 43.348 60.510, 40.881 49.719, 41.970 48.630 C 42.591 48.009, 44.327 48.081, 46.834 48.832 C 49.083 49.506, 57.325 50, 66.319 50 L 81.905 50 89.450 53.974 L 96.995 57.947 104.247 54.231 L 111.500 50.515 130 49.826 C 140.175 49.447, 149.625 48.994, 151 48.818 C 153.455 48.506, 153.496 48.612, 153.261 54.750 C 153.079 59.516, 153.351 61, 154.404 61 C 156.306 61, 156.949 58.905, 157.672 50.352 C 158.048 45.908, 157.915 43, 157.337 43 C 156.811 43, 152.606 43.954, 147.993 45.121 C 138.860 47.431, 128.453 47.288, 126.850 44.832 C 126.371 44.099, 126.097 41.289, 126.240 38.588 L 126.500 33.676 134.208 31.588 C 143.055 29.192, 145.189 27.728, 142.957 25.590 C 142.156 24.822, 133.400 21.651, 123.500 18.543 C 113.600 15.434, 103.676 12.298, 101.447 11.573 C 97.543 10.304, 96.562 10.514, 74.947 17.242 M 92 17.024 C 90.625 17.500, 83.517 19.769, 76.204 22.065 C 68.891 24.362, 63.145 26.478, 63.434 26.768 C 63.724 27.057, 66.107 28.015, 68.730 28.897 C 72.871 30.289, 74.291 30.327, 79.500 29.192 C 88.091 27.320, 105.052 27.391, 113.920 29.336 C 118.360 30.310, 121.773 30.605, 122.420 30.071 C 123.014 29.580, 125.192 28.863, 127.261 28.476 C 129.330 28.090, 131.222 27.450, 131.465 27.056 C 132.033 26.137, 99.993 15.974, 96.858 16.079 C 95.561 16.122, 93.375 16.547, 92 17.024 M 55 32.712 C 55 33.654, 56.182 35.367, 57.626 36.519 C 59.318 37.868, 60.479 40.012, 60.891 42.546 C 61.315 45.152, 62.115 46.591, 63.262 46.812 C 65.451 47.233, 67 43.395, 67 37.554 C 67 33.281, 66.955 33.226, 62.557 32.119 C 56.491 30.591, 55 30.709, 55 32.712 M 82.280 33.837 C 77.209 34.810, 72.867 35.808, 72.631 36.053 C 72.396 36.299, 72.045 38.520, 71.851 40.988 L 71.500 45.476 77.453 46.227 C 84.964 47.175, 88.687 48.404, 92.998 51.359 L 96.416 53.700 102.958 50.636 C 106.556 48.951, 112.190 47.085, 115.477 46.490 L 121.454 45.407 121.136 40.953 C 120.961 38.504, 120.659 36.337, 120.463 36.137 C 119.547 35.201, 106.673 33.006, 99.500 32.562 C 94.101 32.228, 88.502 32.642, 82.280 33.837 M 50.072 42.250 C 49.049 44.916, 49.579 45.631, 53.250 46.538 C 55.867 47.184, 56 47.043, 56 43.608 C 56 40.414, 55.710 40, 53.468 40 C 51.764 40, 50.653 40.736, 50.072 42.250 M 64.344 62.095 C 55.548 63.722, 47.649 69.935, 44.214 77.927 C 43.370 79.892, 42.639 84.425, 42.589 88 C 42.365 104.277, 55.070 116.071, 71.417 114.759 C 86.607 113.539, 97.102 101.095, 95.728 85.933 C 94.269 69.845, 80.202 59.160, 64.344 62.095 M 130.872 62.042 C 122.675 63.383, 116.547 67.742, 112.560 75.067 C 105.274 88.453, 110.193 105.297, 123.432 112.295 C 129.209 115.349, 141.732 115.384, 147.775 112.363 L 152.051 110.226 153.176 112.329 C 155.144 116.005, 155.427 131.790, 153.650 138.725 C 150.115 152.514, 140.945 165.101, 128.542 173.185 C 106.141 187.786, 73.870 182.300, 57.021 161.026 L 53.691 156.822 55.374 151.482 C 57.778 143.855, 64.599 135.101, 71.976 130.175 C 77.741 126.325, 88.850 122, 92.972 122 C 93.941 122, 95.925 123.800, 97.381 126 C 98.837 128.200, 100.491 130, 101.055 130 C 101.620 130, 103.468 127.772, 105.160 125.049 C 107.995 120.488, 108.485 120.140, 111.369 120.640 C 124.193 122.861, 136.448 130.224, 142.763 139.500 C 144.635 142.250, 146.804 144.645, 147.583 144.823 C 150.199 145.420, 149.069 141.293, 145.212 136.160 C 138.677 127.462, 129.495 121.406, 118.505 118.543 C 111.199 116.640, 110.761 116.316, 112.104 113.806 C 113.081 111.979, 112.488 111.008, 107.107 105.627 L 101 99.520 94.901 105.619 L 88.803 111.717 90.436 114.877 C 92.251 118.387, 92.515 118.136, 85 120.043 C 72.814 123.136, 61.069 132.232, 54.812 143.424 C 52.990 146.682, 51.050 149.382, 50.500 149.424 C 49.950 149.466, 48.430 146.350, 47.123 142.500 C 45.182 136.782, 44.756 133.531, 44.798 124.750 C 44.839 116.313, 44.556 114, 43.486 114 C 41.603 114, 40.613 121.518, 41.257 130.919 C 42.279 145.831, 50.895 163.122, 61.178 170.898 C 65.107 173.868, 66.229 175.464, 67.577 180 C 68.476 183.025, 69.796 186.116, 70.510 186.868 C 72.445 188.908, 74.172 187.228, 73.817 183.651 C 73.443 179.891, 74.089 179.847, 84.478 182.930 C 96.021 186.354, 113.920 185.195, 123.143 180.426 C 124.816 179.561, 126.402 179.069, 126.666 179.332 C 126.930 179.596, 126.671 181.534, 126.090 183.637 C 125.259 186.647, 125.328 187.757, 126.418 188.847 C 127.597 190.026, 128.030 189.880, 129.336 187.866 C 130.180 186.564, 131.426 183.250, 132.106 180.500 C 133.136 176.329, 134.432 174.482, 139.921 169.363 C 147.502 162.292, 152.058 155.228, 155.741 144.835 C 157.900 138.739, 158.343 135.726, 158.359 127 C 158.370 121.225, 157.809 114.523, 157.112 112.107 C 155.903 107.912, 155.996 107.418, 159.173 101.158 C 165.269 89.145, 163.095 76.655, 153.426 68.144 C 147.588 63.005, 139.071 60.701, 130.872 62.042 M 61.852 66.391 C 49.674 70.742, 42.702 85.171, 47.375 96.355 C 49.361 101.107, 54.680 106.794, 59.405 109.217 C 64.341 111.748, 72.843 111.993, 78.105 109.756 C 82.587 107.850, 88.088 102.442, 90.313 97.752 C 92.351 93.458, 92.525 84.188, 90.652 79.718 C 85.967 68.539, 72.842 62.465, 61.852 66.391 M 126.459 67.311 C 117.682 71.495, 113 78.869, 113 88.508 C 113 94.918, 115.252 100.098, 120.181 105.027 C 124.528 109.374, 129.346 111.285, 136 111.303 C 142.707 111.320, 148.203 108.731, 153.198 103.203 C 157.687 98.234, 159.351 93.241, 158.786 86.432 C 157.476 70.637, 140.520 60.608, 126.459 67.311 M 59.036 73.841 C 54.807 76.109, 53.106 78.506, 54.639 80.039 C 55.431 80.831, 56.667 80.564, 59.116 79.070 C 68.864 73.128, 79.825 80.806, 76.871 91.507 C 75.652 95.921, 72.781 98.631, 68.466 99.440 C 62.225 100.611, 55 95.761, 55 90.400 C 55 87.920, 52.583 85.521, 51.044 86.473 C 49.670 87.322, 49.711 91.569, 51.120 94.316 C 53.273 98.515, 58.461 103.047, 62.299 104.080 C 67.090 105.371, 70.778 104.615, 75.043 101.468 C 80.097 97.739, 81.986 94.188, 81.993 88.398 C 82.009 76.248, 69.426 68.269, 59.036 73.841 M 126.500 73.331 C 122.421 75.183, 120.352 77.752, 121.784 79.184 C 122.583 79.983, 123.828 79.835, 126.343 78.642 C 133.163 75.405, 140.662 77.356, 142.988 82.972 C 144.555 86.755, 143.769 93.492, 141.464 96.040 C 138.682 99.114, 133.359 100.424, 128.982 99.113 C 124.732 97.839, 122.462 94.980, 121.459 89.635 C 120.658 85.363, 119.498 84.342, 117.412 86.073 C 113.780 89.087, 119.364 99.545, 126.432 102.967 C 132.287 105.801, 137.727 105.057, 142.632 100.750 C 148.999 95.160, 150.684 88.351, 147.410 81.451 C 143.886 74.026, 133.688 70.065, 126.500 73.331 M 131.545 80.927 C 131.191 81.500, 132.539 83.606, 134.541 85.608 C 137.890 88.956, 138.310 89.119, 139.794 87.635 C 141.278 86.151, 141.243 85.801, 139.354 83.261 C 137.250 80.429, 132.694 79.068, 131.545 80.927 M 65.224 82.176 C 63.878 83.522, 65.357 86, 67.506 86 C 68.199 86, 69.012 86.939, 69.312 88.087 C 69.665 89.434, 70.500 90.050, 71.668 89.825 C 74.275 89.323, 74.399 86.777, 71.965 83.683 C 69.718 80.827, 67.148 80.252, 65.224 82.176 M 97.687 108.805 C 96.209 110.347, 95 112.157, 95 112.826 C 95 114.348, 100.005 122, 101 122 C 102.038 122, 107 114.317, 107 112.709 C 107 111.467, 102.015 106, 100.882 106 C 100.603 106, 99.165 107.262, 97.687 108.805 M 51.300 175.100 C 50.466 175.934, 50.563 177.557, 51.673 181.363 C 53.566 187.853, 55.158 189.719, 56.955 187.554 C 58.009 186.284, 57.905 184.993, 56.369 180.316 C 54.433 174.420, 53.224 173.176, 51.300 175.100 M 59.366 175.488 C 58.595 177.497, 60.859 186.638, 62.455 187.963 C 63.382 188.732, 64.082 188.606, 64.995 187.506 C 66.010 186.282, 66.004 185.085, 64.961 181.362 C 64.249 178.819, 63.667 176.122, 63.667 175.369 C 63.667 173.520, 60.083 173.620, 59.366 175.488 M 137.047 176.444 C 136.388 177.238, 135.253 180.145, 134.525 182.905 C 133.469 186.908, 133.454 188.132, 134.449 188.958 C 136.213 190.421, 138.403 187.586, 139.956 181.829 C 141.583 175.795, 140.007 172.877, 137.047 176.444 M 146.278 176.250 C 145.746 176.938, 144.733 179.634, 144.027 182.243 C 142.994 186.061, 142.990 187.283, 144.005 188.506 C 145.863 190.745, 147.607 188.808, 149.015 182.939 C 150.593 176.358, 149.072 172.639, 146.278 176.250" stroke="none" fill="black" fill-rule="evenodd"/>
</svg>